<?xml version="1.0" encoding="UTF-8" standalone="no"?>
<!DOCTYPE svg PUBLIC "-//W3C//DTD SVG 1.1//EN"
 "http://www.w3.org/Graphics/SVG/1.1/DTD/svg11.dtd">
<!-- Generated by graphviz version 9.0.0 (0)
 -->
<!-- Title: AOC Pages: 1 -->
<svg width="1972pt" height="980pt"
 viewBox="0.00 0.00 1972.00 980.00" xmlns="http://www.w3.org/2000/svg" xmlns:xlink="http://www.w3.org/1999/xlink">
<g id="graph0" class="graph" transform="scale(1 1) rotate(0) translate(4 976)">
<title>AOC</title>
<polygon fill="white" stroke="none" points="-4,4 -4,-976 1968,-976 1968,4 -4,4"/>
<!-- kv -->
<g id="node1" class="node">
<title>kv</title>
<ellipse fill="none" stroke="black" cx="964" cy="-666" rx="27.81" ry="18"/>
<text text-anchor="middle" x="964" y="-660.95" font-family="Times,serif" font-size="14.00">&amp;kv</text>
</g>
<!-- qb -->
<g id="node2" class="node">
<title>qb</title>
<ellipse fill="none" stroke="black" cx="1039" cy="-594" rx="27.81" ry="18"/>
<text text-anchor="middle" x="1039" y="-588.95" font-family="Times,serif" font-size="14.00">&amp;qb</text>
</g>
<!-- kv&#45;&gt;qb -->
<g id="edge1" class="edge">
<title>kv&#45;&gt;qb</title>
<path fill="none" stroke="black" d="M979.18,-650.83C989.58,-641.13 1003.58,-628.06 1015.43,-617"/>
<polygon fill="black" stroke="black" points="1017.56,-619.8 1022.48,-610.42 1012.78,-614.68 1017.56,-619.8"/>
</g>
<!-- rx -->
<g id="node43" class="node">
<title>rx</title>
<ellipse fill="none" stroke="black" cx="1039" cy="-522" rx="27" ry="18"/>
<text text-anchor="middle" x="1039" y="-516.95" font-family="Times,serif" font-size="14.00">rx</text>
</g>
<!-- qb&#45;&gt;rx -->
<g id="edge43" class="edge">
<title>qb&#45;&gt;rx</title>
<path fill="none" stroke="black" d="M1039,-575.7C1039,-568.41 1039,-559.73 1039,-551.54"/>
<polygon fill="black" stroke="black" points="1042.5,-551.62 1039,-541.62 1035.5,-551.62 1042.5,-551.62"/>
</g>
<!-- px -->
<g id="node3" class="node">
<title>px</title>
<ellipse fill="none" stroke="black" cx="738" cy="-522" rx="28.32" ry="18"/>
<text text-anchor="middle" x="738" y="-516.95" font-family="Times,serif" font-size="14.00">%px</text>
</g>
<!-- qz -->
<g id="node4" class="node">
<title>qz</title>
<ellipse fill="none" stroke="black" cx="756" cy="-738" rx="27.3" ry="18"/>
<text text-anchor="middle" x="756" y="-732.95" font-family="Times,serif" font-size="14.00">&amp;qz</text>
</g>
<!-- px&#45;&gt;qz -->
<g id="edge2" class="edge">
<title>px&#45;&gt;qz</title>
<path fill="none" stroke="black" d="M739.45,-540.23C742.54,-577.01 749.82,-663.5 753.61,-708.57"/>
<polygon fill="black" stroke="black" points="750.1,-708.67 754.43,-718.34 757.08,-708.08 750.1,-708.67"/>
</g>
<!-- tk -->
<g id="node5" class="node">
<title>tk</title>
<ellipse fill="none" stroke="black" cx="777" cy="-450" rx="27" ry="18"/>
<text text-anchor="middle" x="777" y="-444.95" font-family="Times,serif" font-size="14.00">%tk</text>
</g>
<!-- px&#45;&gt;tk -->
<g id="edge3" class="edge">
<title>px&#45;&gt;tk</title>
<path fill="none" stroke="black" d="M747.05,-504.76C751.62,-496.55 757.29,-486.37 762.46,-477.09"/>
<polygon fill="black" stroke="black" points="765.46,-478.91 767.27,-468.47 759.34,-475.5 765.46,-478.91"/>
</g>
<!-- qz&#45;&gt;kv -->
<g id="edge21" class="edge">
<title>qz&#45;&gt;kv</title>
<path fill="none" stroke="black" d="M780.67,-729.76C813.26,-720.05 872.35,-701.94 922,-684 924.72,-683.02 927.52,-681.97 930.33,-680.89"/>
<polygon fill="black" stroke="black" points="931.59,-684.15 939.61,-677.22 929.02,-677.64 931.59,-684.15"/>
</g>
<!-- qz&#45;&gt;tk -->
<g id="edge22" class="edge">
<title>qz&#45;&gt;tk</title>
<path fill="none" stroke="black" d="M758.91,-719.86C760.59,-709.5 762.64,-696.02 764,-684 771.24,-620.22 771.83,-604.11 775,-540 775.99,-519.9 776.49,-497.23 776.74,-479.8"/>
<polygon fill="black" stroke="black" points="780.24,-479.96 776.87,-469.92 773.24,-479.87 780.24,-479.96"/>
</g>
<!-- rj -->
<g id="node9" class="node">
<title>rj</title>
<ellipse fill="none" stroke="black" cx="756" cy="-882" rx="27" ry="18"/>
<text text-anchor="middle" x="756" y="-876.95" font-family="Times,serif" font-size="14.00">%rj</text>
</g>
<!-- qz&#45;&gt;rj -->
<g id="edge23" class="edge">
<title>qz&#45;&gt;rj</title>
<path fill="none" stroke="black" d="M760.59,-756.19C763.11,-780.1 763.43,-823.72 761.53,-852.53"/>
<polygon fill="black" stroke="black" points="758.05,-852.11 760.71,-862.36 765.03,-852.69 758.05,-852.11"/>
</g>
<!-- hq -->
<g id="node24" class="node">
<title>hq</title>
<ellipse fill="none" stroke="black" cx="795" cy="-378" rx="28.32" ry="18"/>
<text text-anchor="middle" x="795" y="-372.95" font-family="Times,serif" font-size="14.00">%hq</text>
</g>
<!-- qz&#45;&gt;hq -->
<g id="edge24" class="edge">
<title>qz&#45;&gt;hq</title>
<path fill="none" stroke="black" d="M770.3,-722.23C792.31,-697.85 832,-646.73 832,-595 832,-595 832,-595 832,-521 832,-480.02 817.39,-434.48 806.54,-406.29"/>
<polygon fill="black" stroke="black" points="809.82,-405.08 802.87,-397.09 803.32,-407.67 809.82,-405.08"/>
</g>
<!-- vk -->
<g id="node28" class="node">
<title>vk</title>
<ellipse fill="none" stroke="black" cx="720" cy="-234" rx="28.32" ry="18"/>
<text text-anchor="middle" x="720" y="-228.95" font-family="Times,serif" font-size="14.00">%vk</text>
</g>
<!-- qz&#45;&gt;vk -->
<g id="edge25" class="edge">
<title>qz&#45;&gt;vk</title>
<path fill="none" stroke="black" d="M741.91,-722.16C721.68,-700 684.69,-656.12 665,-612 648.51,-575.07 646,-563.45 646,-523 646,-523 646,-523 646,-377 646,-331 676.92,-285.13 698.79,-258.45"/>
<polygon fill="black" stroke="black" points="701.31,-260.89 705.1,-251 695.97,-256.36 701.31,-260.89"/>
</g>
<!-- qm -->
<g id="node29" class="node">
<title>qm</title>
<ellipse fill="none" stroke="black" cx="583" cy="-666" rx="31.39" ry="18"/>
<text text-anchor="middle" x="583" y="-660.95" font-family="Times,serif" font-size="14.00">%qm</text>
</g>
<!-- qz&#45;&gt;qm -->
<g id="edge26" class="edge">
<title>qz&#45;&gt;qm</title>
<path fill="none" stroke="black" d="M733.03,-727.7C703.83,-715.89 653.12,-695.37 618.83,-681.5"/>
<polygon fill="black" stroke="black" points="620.3,-678.32 609.72,-677.81 617.68,-684.81 620.3,-678.32"/>
</g>
<!-- tk&#45;&gt;hq -->
<g id="edge73" class="edge">
<title>tk&#45;&gt;hq</title>
<path fill="none" stroke="black" d="M781.36,-432.05C783.27,-424.6 785.58,-415.64 787.74,-407.22"/>
<polygon fill="black" stroke="black" points="791.08,-408.3 790.18,-397.74 784.3,-406.55 791.08,-408.3"/>
</g>
<!-- xk -->
<g id="node6" class="node">
<title>xk</title>
<ellipse fill="none" stroke="black" cx="1628" cy="-882" rx="28.32" ry="18"/>
<text text-anchor="middle" x="1628" y="-876.95" font-family="Times,serif" font-size="14.00">%xk</text>
</g>
<!-- sv -->
<g id="node7" class="node">
<title>sv</title>
<ellipse fill="none" stroke="black" cx="1717" cy="-810" rx="27" ry="18"/>
<text text-anchor="middle" x="1717" y="-804.95" font-family="Times,serif" font-size="14.00">&amp;sv</text>
</g>
<!-- xk&#45;&gt;sv -->
<g id="edge4" class="edge">
<title>xk&#45;&gt;sv</title>
<path fill="none" stroke="black" d="M1641.63,-865.81C1654.04,-855.02 1672.41,-840.49 1687.99,-829.1"/>
<polygon fill="black" stroke="black" points="1689.93,-832.02 1696.03,-823.35 1685.86,-826.32 1689.93,-832.02"/>
</g>
<!-- zv -->
<g id="node8" class="node">
<title>zv</title>
<ellipse fill="none" stroke="black" cx="1530" cy="-738" rx="27.81" ry="18"/>
<text text-anchor="middle" x="1530" y="-732.95" font-family="Times,serif" font-size="14.00">%zv</text>
</g>
<!-- xk&#45;&gt;zv -->
<g id="edge5" class="edge">
<title>xk&#45;&gt;zv</title>
<path fill="none" stroke="black" d="M1616.95,-864.99C1599.95,-840.35 1567.25,-792.97 1547.15,-763.85"/>
<polygon fill="black" stroke="black" points="1550.28,-762.23 1541.72,-755.98 1544.52,-766.2 1550.28,-762.23"/>
</g>
<!-- sv&#45;&gt;xk -->
<g id="edge78" class="edge">
<title>sv&#45;&gt;xk</title>
<path fill="none" stroke="black" d="M1703.74,-825.86C1691.5,-836.54 1673.23,-851.02 1657.61,-862.46"/>
<polygon fill="black" stroke="black" points="1655.63,-859.57 1649.54,-868.24 1659.71,-865.26 1655.63,-859.57"/>
</g>
<!-- sv&#45;&gt;zv -->
<g id="edge79" class="edge">
<title>sv&#45;&gt;zv</title>
<path fill="none" stroke="black" d="M1693.3,-800.62C1664.51,-790.37 1614.52,-772.37 1572,-756 1569.3,-754.96 1566.51,-753.87 1563.72,-752.76"/>
<polygon fill="black" stroke="black" points="1565.04,-749.52 1554.46,-749.06 1562.44,-756.02 1565.04,-749.52"/>
</g>
<!-- dz -->
<g id="node18" class="node">
<title>dz</title>
<ellipse fill="none" stroke="black" cx="1680" cy="-666" rx="27.81" ry="18"/>
<text text-anchor="middle" x="1680" y="-660.95" font-family="Times,serif" font-size="14.00">%dz</text>
</g>
<!-- sv&#45;&gt;dz -->
<g id="edge80" class="edge">
<title>sv&#45;&gt;dz</title>
<path fill="none" stroke="black" d="M1712.54,-791.87C1706.29,-767.88 1694.85,-723.99 1687.34,-695.16"/>
<polygon fill="black" stroke="black" points="1690.77,-694.45 1684.86,-685.65 1684,-696.21 1690.77,-694.45"/>
</g>
<!-- mx -->
<g id="node36" class="node">
<title>mx</title>
<ellipse fill="none" stroke="black" cx="1753" cy="-522" rx="31.39" ry="18"/>
<text text-anchor="middle" x="1753" y="-516.95" font-family="Times,serif" font-size="14.00">%mx</text>
</g>
<!-- sv&#45;&gt;mx -->
<g id="edge81" class="edge">
<title>sv&#45;&gt;mx</title>
<path fill="none" stroke="black" d="M1721.95,-791.91C1724.83,-781.57 1728.4,-768.1 1731,-756 1744.63,-692.57 1749.65,-676.66 1755,-612 1756.32,-596.05 1755.3,-592 1755,-576 1754.85,-568.05 1754.57,-559.44 1754.27,-551.51"/>
<polygon fill="black" stroke="black" points="1757.78,-551.54 1753.87,-541.69 1750.78,-551.83 1757.78,-551.54"/>
</g>
<!-- rz -->
<g id="node51" class="node">
<title>rz</title>
<ellipse fill="none" stroke="black" cx="1163" cy="-738" rx="27" ry="18"/>
<text text-anchor="middle" x="1163" y="-732.95" font-family="Times,serif" font-size="14.00">&amp;rz</text>
</g>
<!-- sv&#45;&gt;rz -->
<g id="edge82" class="edge">
<title>sv&#45;&gt;rz</title>
<path fill="none" stroke="black" d="M1690.38,-805.83C1622.99,-797.77 1440.19,-775.75 1288,-756 1258.56,-752.18 1225.26,-747.64 1200.43,-744.21"/>
<polygon fill="black" stroke="black" points="1201.21,-740.79 1190.82,-742.88 1200.25,-747.72 1201.21,-740.79"/>
</g>
<!-- zv&#45;&gt;dz -->
<g id="edge96" class="edge">
<title>zv&#45;&gt;dz</title>
<path fill="none" stroke="black" d="M1552.13,-726.67C1577.28,-714.94 1618.56,-695.67 1647.39,-682.22"/>
<polygon fill="black" stroke="black" points="1648.82,-685.41 1656.4,-678.01 1645.86,-679.07 1648.82,-685.41"/>
</g>
<!-- rj&#45;&gt;qz -->
<g id="edge6" class="edge">
<title>rj&#45;&gt;qz</title>
<path fill="none" stroke="black" d="M751.42,-863.87C748.89,-839.99 748.57,-796.38 750.46,-767.54"/>
<polygon fill="black" stroke="black" points="753.94,-767.95 751.28,-757.7 746.97,-767.37 753.94,-767.95"/>
</g>
<!-- lx -->
<g id="node10" class="node">
<title>lx</title>
<ellipse fill="none" stroke="black" cx="692" cy="-810" rx="27" ry="18"/>
<text text-anchor="middle" x="692" y="-804.95" font-family="Times,serif" font-size="14.00">%lx</text>
</g>
<!-- rj&#45;&gt;lx -->
<g id="edge7" class="edge">
<title>rj&#45;&gt;lx</title>
<path fill="none" stroke="black" d="M742.43,-866.15C733.94,-856.87 722.83,-844.73 713.2,-834.19"/>
<polygon fill="black" stroke="black" points="715.91,-831.96 706.57,-826.94 710.74,-836.68 715.91,-831.96"/>
</g>
<!-- lx&#45;&gt;qz -->
<g id="edge57" class="edge">
<title>lx&#45;&gt;qz</title>
<path fill="none" stroke="black" d="M705.57,-794.15C714.06,-784.87 725.17,-772.73 734.8,-762.19"/>
<polygon fill="black" stroke="black" points="737.26,-764.68 741.43,-754.94 732.09,-759.96 737.26,-764.68"/>
</g>
<!-- lx&#45;&gt;qm -->
<g id="edge58" class="edge">
<title>lx&#45;&gt;qm</title>
<path fill="none" stroke="black" d="M680.13,-793.53C661.31,-769.02 624.46,-721.01 601.95,-691.69"/>
<polygon fill="black" stroke="black" points="604.98,-689.88 596.11,-684.08 599.42,-694.15 604.98,-689.88"/>
</g>
<!-- ks -->
<g id="node11" class="node">
<title>ks</title>
<ellipse fill="none" stroke="black" cx="1417" cy="-522" rx="27.3" ry="18"/>
<text text-anchor="middle" x="1417" y="-516.95" font-family="Times,serif" font-size="14.00">%ks</text>
</g>
<!-- fc -->
<g id="node12" class="node">
<title>fc</title>
<ellipse fill="none" stroke="black" cx="1379" cy="-450" rx="27" ry="18"/>
<text text-anchor="middle" x="1379" y="-444.95" font-family="Times,serif" font-size="14.00">%fc</text>
</g>
<!-- ks&#45;&gt;fc -->
<g id="edge8" class="edge">
<title>ks&#45;&gt;fc</title>
<path fill="none" stroke="black" d="M1408.19,-504.76C1403.73,-496.55 1398.2,-486.37 1393.16,-477.09"/>
<polygon fill="black" stroke="black" points="1396.33,-475.6 1388.49,-468.48 1390.18,-478.94 1396.33,-475.6"/>
</g>
<!-- dr -->
<g id="node15" class="node">
<title>dr</title>
<ellipse fill="none" stroke="black" cx="1324" cy="-738" rx="27" ry="18"/>
<text text-anchor="middle" x="1324" y="-732.95" font-family="Times,serif" font-size="14.00">&amp;dr</text>
</g>
<!-- fc&#45;&gt;dr -->
<g id="edge89" class="edge">
<title>fc&#45;&gt;dr</title>
<path fill="none" stroke="black" d="M1376.46,-468.34C1370.66,-507.17 1355.58,-603.97 1338,-684 1336.22,-692.12 1334.02,-700.87 1331.9,-708.87"/>
<polygon fill="black" stroke="black" points="1328.54,-707.87 1329.3,-718.44 1335.3,-709.71 1328.54,-707.87"/>
</g>
<!-- tq -->
<g id="node34" class="node">
<title>tq</title>
<ellipse fill="none" stroke="black" cx="1341" cy="-378" rx="27" ry="18"/>
<text text-anchor="middle" x="1341" y="-372.95" font-family="Times,serif" font-size="14.00">%tq</text>
</g>
<!-- fc&#45;&gt;tq -->
<g id="edge90" class="edge">
<title>fc&#45;&gt;tq</title>
<path fill="none" stroke="black" d="M1370.19,-432.76C1365.73,-424.55 1360.2,-414.37 1355.16,-405.09"/>
<polygon fill="black" stroke="black" points="1358.33,-403.6 1350.49,-396.48 1352.18,-406.94 1358.33,-403.6"/>
</g>
<!-- dx -->
<g id="node13" class="node">
<title>dx</title>
<ellipse fill="none" stroke="black" cx="1284" cy="-234" rx="28.32" ry="18"/>
<text text-anchor="middle" x="1284" y="-228.95" font-family="Times,serif" font-size="14.00">%dx</text>
</g>
<!-- gt -->
<g id="node14" class="node">
<title>gt</title>
<ellipse fill="none" stroke="black" cx="1284" cy="-162" rx="27" ry="18"/>
<text text-anchor="middle" x="1284" y="-156.95" font-family="Times,serif" font-size="14.00">%gt</text>
</g>
<!-- dx&#45;&gt;gt -->
<g id="edge9" class="edge">
<title>dx&#45;&gt;gt</title>
<path fill="none" stroke="black" d="M1284,-215.7C1284,-208.41 1284,-199.73 1284,-191.54"/>
<polygon fill="black" stroke="black" points="1287.5,-191.62 1284,-181.62 1280.5,-191.62 1287.5,-191.62"/>
</g>
<!-- dx&#45;&gt;dr -->
<g id="edge10" class="edge">
<title>dx&#45;&gt;dr</title>
<path fill="none" stroke="black" d="M1276.89,-251.7C1266.4,-277.89 1248,-330.46 1248,-377 1248,-595 1248,-595 1248,-595 1248,-641.27 1279.76,-687.06 1302.22,-713.65"/>
<polygon fill="black" stroke="black" points="1299.5,-715.86 1308.71,-721.09 1304.77,-711.25 1299.5,-715.86"/>
</g>
<!-- gt&#45;&gt;dr -->
<g id="edge52" class="edge">
<title>gt&#45;&gt;dr</title>
<path fill="none" stroke="black" d="M1310.77,-164.91C1377.88,-171.3 1548,-198.05 1548,-305 1548,-595 1548,-595 1548,-595 1548,-635.45 1556.98,-654.8 1529,-684 1506.18,-707.81 1414.64,-724.28 1361.92,-732"/>
<polygon fill="black" stroke="black" points="1361.58,-728.52 1352.17,-733.39 1362.57,-735.45 1361.58,-728.52"/>
</g>
<!-- nd -->
<g id="node49" class="node">
<title>nd</title>
<ellipse fill="none" stroke="black" cx="1228" cy="-90" rx="28.32" ry="18"/>
<text text-anchor="middle" x="1228" y="-84.95" font-family="Times,serif" font-size="14.00">%nd</text>
</g>
<!-- gt&#45;&gt;nd -->
<g id="edge53" class="edge">
<title>gt&#45;&gt;nd</title>
<path fill="none" stroke="black" d="M1271.85,-145.81C1264.76,-136.94 1255.64,-125.55 1247.56,-115.45"/>
<polygon fill="black" stroke="black" points="1250.44,-113.45 1241.46,-107.83 1244.97,-117.82 1250.44,-113.45"/>
</g>
<!-- dr&#45;&gt;ks -->
<g id="edge30" class="edge">
<title>dr&#45;&gt;ks</title>
<path fill="none" stroke="black" d="M1340.9,-723.9C1352.43,-714.1 1367.15,-699.73 1376,-684 1399.94,-641.47 1410.14,-584.82 1414.31,-551.3"/>
<polygon fill="black" stroke="black" points="1417.77,-551.9 1415.42,-541.57 1410.81,-551.11 1417.77,-551.9"/>
</g>
<!-- cn -->
<g id="node21" class="node">
<title>cn</title>
<ellipse fill="none" stroke="black" cx="1324" cy="-882" rx="27.81" ry="18"/>
<text text-anchor="middle" x="1324" y="-876.95" font-family="Times,serif" font-size="14.00">%cn</text>
</g>
<!-- dr&#45;&gt;cn -->
<g id="edge31" class="edge">
<title>dr&#45;&gt;cn</title>
<path fill="none" stroke="black" d="M1328.59,-756.19C1331.11,-780.1 1331.43,-823.72 1329.53,-852.53"/>
<polygon fill="black" stroke="black" points="1326.05,-852.11 1328.71,-862.36 1333.03,-852.69 1326.05,-852.11"/>
</g>
<!-- ct -->
<g id="node23" class="node">
<title>ct</title>
<ellipse fill="none" stroke="black" cx="1455" cy="-594" rx="27" ry="18"/>
<text text-anchor="middle" x="1455" y="-588.95" font-family="Times,serif" font-size="14.00">%ct</text>
</g>
<!-- dr&#45;&gt;ct -->
<g id="edge32" class="edge">
<title>dr&#45;&gt;ct</title>
<path fill="none" stroke="black" d="M1346.95,-728.16C1366.88,-719.49 1395.39,-704.58 1414,-684 1429.78,-666.55 1440.48,-641.98 1446.98,-623.07"/>
<polygon fill="black" stroke="black" points="1450.3,-624.18 1450.02,-613.59 1443.63,-622.04 1450.3,-624.18"/>
</g>
<!-- jz -->
<g id="node33" class="node">
<title>jz</title>
<ellipse fill="none" stroke="black" cx="1493" cy="-666" rx="27" ry="18"/>
<text text-anchor="middle" x="1493" y="-660.95" font-family="Times,serif" font-size="14.00">%jz</text>
</g>
<!-- dr&#45;&gt;jz -->
<g id="edge33" class="edge">
<title>dr&#45;&gt;jz</title>
<path fill="none" stroke="black" d="M1346.66,-727.62C1372.24,-717.03 1415.11,-699.28 1452,-684 1454.62,-682.92 1457.33,-681.79 1460.05,-680.66"/>
<polygon fill="black" stroke="black" points="1461.15,-684 1469.05,-676.93 1458.47,-677.53 1461.15,-684"/>
</g>
<!-- dr&#45;&gt;tq -->
<g id="edge34" class="edge">
<title>dr&#45;&gt;tq</title>
<path fill="none" stroke="black" d="M1324,-719.51C1324,-692.71 1324,-639.87 1324,-595 1324,-595 1324,-595 1324,-521 1324,-481.24 1330.65,-435.67 1335.63,-407.1"/>
<polygon fill="black" stroke="black" points="1339.04,-407.92 1337.37,-397.46 1332.15,-406.68 1339.04,-407.92"/>
</g>
<!-- mr -->
<g id="node35" class="node">
<title>mr</title>
<ellipse fill="none" stroke="black" cx="1115" cy="-666" rx="29.34" ry="18"/>
<text text-anchor="middle" x="1115" y="-660.95" font-family="Times,serif" font-size="14.00">&amp;mr</text>
</g>
<!-- dr&#45;&gt;mr -->
<g id="edge35" class="edge">
<title>dr&#45;&gt;mr</title>
<path fill="none" stroke="black" d="M1299.64,-729.78C1267.13,-720.03 1207.86,-701.79 1158,-684 1155.29,-683.03 1152.49,-682 1149.69,-680.95"/>
<polygon fill="black" stroke="black" points="1151,-677.7 1140.41,-677.36 1148.48,-684.23 1151,-677.7"/>
</g>
<!-- lz -->
<g id="node16" class="node">
<title>lz</title>
<ellipse fill="none" stroke="black" cx="720" cy="-162" rx="27" ry="18"/>
<text text-anchor="middle" x="720" y="-156.95" font-family="Times,serif" font-size="14.00">%lz</text>
</g>
<!-- lz&#45;&gt;qz -->
<g id="edge11" class="edge">
<title>lz&#45;&gt;qz</title>
<path fill="none" stroke="black" d="M744.96,-169.2C796.1,-183.56 908,-224.22 908,-305 908,-595 908,-595 908,-595 908,-659.39 834.27,-702.97 789.51,-723.49"/>
<polygon fill="black" stroke="black" points="788.2,-720.24 780.47,-727.48 791.03,-726.64 788.2,-720.24"/>
</g>
<!-- df -->
<g id="node17" class="node">
<title>df</title>
<ellipse fill="none" stroke="black" cx="608" cy="-90" rx="27" ry="18"/>
<text text-anchor="middle" x="608" y="-84.95" font-family="Times,serif" font-size="14.00">%df</text>
</g>
<!-- lz&#45;&gt;df -->
<g id="edge12" class="edge">
<title>lz&#45;&gt;df</title>
<path fill="none" stroke="black" d="M700.75,-148.97C683.2,-138 657.03,-121.64 636.96,-109.1"/>
<polygon fill="black" stroke="black" points="639,-106.24 628.66,-103.91 635.29,-112.18 639,-106.24"/>
</g>
<!-- df&#45;&gt;qz -->
<g id="edge71" class="edge">
<title>df&#45;&gt;qz</title>
<path fill="none" stroke="black" d="M608,-108.49C608,-135.29 608,-188.13 608,-233 608,-523 608,-523 608,-523 608,-525.28 673.51,-673.82 682,-684 694.09,-698.49 711.01,-711 725.61,-720.22"/>
<polygon fill="black" stroke="black" points="723.61,-723.09 733.98,-725.28 727.23,-717.11 723.61,-723.09"/>
</g>
<!-- jd -->
<g id="node42" class="node">
<title>jd</title>
<ellipse fill="none" stroke="black" cx="566" cy="-18" rx="27" ry="18"/>
<text text-anchor="middle" x="566" y="-12.95" font-family="Times,serif" font-size="14.00">%jd</text>
</g>
<!-- df&#45;&gt;jd -->
<g id="edge72" class="edge">
<title>df&#45;&gt;jd</title>
<path fill="none" stroke="black" d="M598.26,-72.76C593.28,-64.46 587.09,-54.15 581.48,-44.79"/>
<polygon fill="black" stroke="black" points="584.61,-43.22 576.47,-36.45 578.61,-46.82 584.61,-43.22"/>
</g>
<!-- fr -->
<g id="node19" class="node">
<title>fr</title>
<ellipse fill="none" stroke="black" cx="1719" cy="-594" rx="27" ry="18"/>
<text text-anchor="middle" x="1719" y="-588.95" font-family="Times,serif" font-size="14.00">%fr</text>
</g>
<!-- dz&#45;&gt;fr -->
<g id="edge13" class="edge">
<title>dz&#45;&gt;fr</title>
<path fill="none" stroke="black" d="M1689.05,-648.76C1693.62,-640.55 1699.29,-630.37 1704.46,-621.09"/>
<polygon fill="black" stroke="black" points="1707.46,-622.91 1709.27,-612.47 1701.34,-619.5 1707.46,-622.91"/>
</g>
<!-- fr&#45;&gt;sv -->
<g id="edge100" class="edge">
<title>fr&#45;&gt;sv</title>
<path fill="none" stroke="black" d="M1718.84,-612.23C1718.5,-649.01 1717.69,-735.5 1717.27,-780.57"/>
<polygon fill="black" stroke="black" points="1713.77,-780.3 1717.17,-790.34 1720.77,-780.37 1713.77,-780.3"/>
</g>
<!-- fr&#45;&gt;mx -->
<g id="edge101" class="edge">
<title>fr&#45;&gt;mx</title>
<path fill="none" stroke="black" d="M1727.06,-576.41C1730.95,-568.39 1735.72,-558.57 1740.11,-549.54"/>
<polygon fill="black" stroke="black" points="1743.12,-551.36 1744.34,-540.83 1736.82,-548.3 1743.12,-551.36"/>
</g>
<!-- broadcaster -->
<g id="node20" class="node">
<title>broadcaster</title>
<ellipse fill="none" stroke="black" cx="1040" cy="-954" rx="53.4" ry="18"/>
<text text-anchor="middle" x="1040" y="-948.95" font-family="Times,serif" font-size="14.00">broadcaster</text>
</g>
<!-- broadcaster&#45;&gt;xk -->
<g id="edge14" class="edge">
<title>broadcaster&#45;&gt;xk</title>
<path fill="none" stroke="black" d="M1089.88,-947.06C1204.69,-933.39 1485.72,-899.94 1589.05,-887.64"/>
<polygon fill="black" stroke="black" points="1589.17,-891.15 1598.69,-886.49 1588.34,-884.2 1589.17,-891.15"/>
</g>
<!-- broadcaster&#45;&gt;rj -->
<g id="edge15" class="edge">
<title>broadcaster&#45;&gt;rj</title>
<path fill="none" stroke="black" d="M997.79,-942.6C942.05,-928.86 844.84,-904.9 792.25,-891.94"/>
<polygon fill="black" stroke="black" points="793.14,-888.55 782.6,-889.56 791.47,-895.35 793.14,-888.55"/>
</g>
<!-- broadcaster&#45;&gt;cn -->
<g id="edge16" class="edge">
<title>broadcaster&#45;&gt;cn</title>
<path fill="none" stroke="black" d="M1082.21,-942.6C1137.78,-928.9 1234.57,-905.04 1287.26,-892.06"/>
<polygon fill="black" stroke="black" points="1287.77,-895.53 1296.64,-889.74 1286.1,-888.74 1287.77,-895.53"/>
</g>
<!-- gf -->
<g id="node22" class="node">
<title>gf</title>
<ellipse fill="none" stroke="black" cx="431" cy="-882" rx="27" ry="18"/>
<text text-anchor="middle" x="431" y="-876.95" font-family="Times,serif" font-size="14.00">%gf</text>
</g>
<!-- broadcaster&#45;&gt;gf -->
<g id="edge17" class="edge">
<title>broadcaster&#45;&gt;gf</title>
<path fill="none" stroke="black" d="M989.9,-947.24C871.14,-933.59 574.55,-899.5 469.02,-887.37"/>
<polygon fill="black" stroke="black" points="469.53,-883.91 459.19,-886.24 468.73,-890.86 469.53,-883.91"/>
</g>
<!-- cn&#45;&gt;dr -->
<g id="edge39" class="edge">
<title>cn&#45;&gt;dr</title>
<path fill="none" stroke="black" d="M1319.42,-863.87C1316.89,-839.99 1316.57,-796.38 1318.46,-767.54"/>
<polygon fill="black" stroke="black" points="1321.94,-767.95 1319.28,-757.7 1314.97,-767.37 1321.94,-767.95"/>
</g>
<!-- mq -->
<g id="node41" class="node">
<title>mq</title>
<ellipse fill="none" stroke="black" cx="1392" cy="-810" rx="31.39" ry="18"/>
<text text-anchor="middle" x="1392" y="-804.95" font-family="Times,serif" font-size="14.00">%mq</text>
</g>
<!-- cn&#45;&gt;mq -->
<g id="edge40" class="edge">
<title>cn&#45;&gt;mq</title>
<path fill="none" stroke="black" d="M1338.42,-866.15C1347.4,-856.91 1359.15,-844.81 1369.36,-834.31"/>
<polygon fill="black" stroke="black" points="1371.62,-837 1376.08,-827.39 1366.6,-832.13 1371.62,-837"/>
</g>
<!-- sk -->
<g id="node39" class="node">
<title>sk</title>
<ellipse fill="none" stroke="black" cx="280" cy="-954" rx="27" ry="18"/>
<text text-anchor="middle" x="280" y="-948.95" font-family="Times,serif" font-size="14.00">&amp;sk</text>
</g>
<!-- gf&#45;&gt;sk -->
<g id="edge75" class="edge">
<title>gf&#45;&gt;sk</title>
<path fill="none" stroke="black" d="M411.47,-894.44C386.6,-906.92 343.69,-926.85 313.58,-939.93"/>
<polygon fill="black" stroke="black" points="312.33,-936.66 304.52,-943.82 315.09,-943.1 312.33,-936.66"/>
</g>
<!-- rl -->
<g id="node54" class="node">
<title>rl</title>
<ellipse fill="none" stroke="black" cx="245" cy="-810" rx="27" ry="18"/>
<text text-anchor="middle" x="245" y="-804.95" font-family="Times,serif" font-size="14.00">%rl</text>
</g>
<!-- gf&#45;&gt;rl -->
<g id="edge76" class="edge">
<title>gf&#45;&gt;rl</title>
<path fill="none" stroke="black" d="M407.82,-872.28C375.29,-860.03 315.91,-837.68 278.55,-823.63"/>
<polygon fill="black" stroke="black" points="280.19,-820.5 269.6,-820.26 277.72,-827.05 280.19,-820.5"/>
</g>
<!-- ct&#45;&gt;ks -->
<g id="edge18" class="edge">
<title>ct&#45;&gt;ks</title>
<path fill="none" stroke="black" d="M1446.19,-576.76C1441.73,-568.55 1436.2,-558.37 1431.16,-549.09"/>
<polygon fill="black" stroke="black" points="1434.33,-547.6 1426.49,-540.48 1428.18,-550.94 1434.33,-547.6"/>
</g>
<!-- bz -->
<g id="node25" class="node">
<title>bz</title>
<ellipse fill="none" stroke="black" cx="795" cy="-306" rx="27.81" ry="18"/>
<text text-anchor="middle" x="795" y="-300.95" font-family="Times,serif" font-size="14.00">%bz</text>
</g>
<!-- hq&#45;&gt;bz -->
<g id="edge19" class="edge">
<title>hq&#45;&gt;bz</title>
<path fill="none" stroke="black" d="M795,-359.7C795,-352.41 795,-343.73 795,-335.54"/>
<polygon fill="black" stroke="black" points="798.5,-335.62 795,-325.62 791.5,-335.62 798.5,-335.62"/>
</g>
<!-- bz&#45;&gt;qz -->
<g id="edge94" class="edge">
<title>bz&#45;&gt;qz</title>
<path fill="none" stroke="black" d="M809.11,-321.81C830.83,-346.23 870,-397.42 870,-449 870,-595 870,-595 870,-595 870,-649.24 818.8,-694.56 785.02,-718.55"/>
<polygon fill="black" stroke="black" points="783.11,-715.62 776.85,-724.16 787.07,-721.39 783.11,-715.62"/>
</g>
<!-- bz&#45;&gt;vk -->
<g id="edge95" class="edge">
<title>bz&#45;&gt;vk</title>
<path fill="none" stroke="black" d="M779.82,-290.83C769.42,-281.13 755.42,-268.06 743.57,-257"/>
<polygon fill="black" stroke="black" points="746.22,-254.68 736.52,-250.42 741.44,-259.8 746.22,-254.68"/>
</g>
<!-- qv -->
<g id="node26" class="node">
<title>qv</title>
<ellipse fill="none" stroke="black" cx="221" cy="-522" rx="28.32" ry="18"/>
<text text-anchor="middle" x="221" y="-516.95" font-family="Times,serif" font-size="14.00">%qv</text>
</g>
<!-- cx -->
<g id="node27" class="node">
<title>cx</title>
<ellipse fill="none" stroke="black" cx="221" cy="-450" rx="27.81" ry="18"/>
<text text-anchor="middle" x="221" y="-444.95" font-family="Times,serif" font-size="14.00">%cx</text>
</g>
<!-- qv&#45;&gt;cx -->
<g id="edge20" class="edge">
<title>qv&#45;&gt;cx</title>
<path fill="none" stroke="black" d="M221,-503.7C221,-496.41 221,-487.73 221,-479.54"/>
<polygon fill="black" stroke="black" points="224.5,-479.62 221,-469.62 217.5,-479.62 224.5,-479.62"/>
</g>
<!-- cx&#45;&gt;sk -->
<g id="edge92" class="edge">
<title>cx&#45;&gt;sk</title>
<path fill="none" stroke="black" d="M198.02,-460.65C157.14,-479.54 76,-525.53 76,-593 76,-811 76,-811 76,-811 76,-857.5 94.83,-870.78 131,-900 163.53,-926.28 210.09,-940.05 242.47,-946.89"/>
<polygon fill="black" stroke="black" points="241.73,-950.31 252.22,-948.82 243.09,-943.45 241.73,-950.31"/>
</g>
<!-- qh -->
<g id="node53" class="node">
<title>qh</title>
<ellipse fill="none" stroke="black" cx="287" cy="-378" rx="28.32" ry="18"/>
<text text-anchor="middle" x="287" y="-372.95" font-family="Times,serif" font-size="14.00">%qh</text>
</g>
<!-- cx&#45;&gt;qh -->
<g id="edge93" class="edge">
<title>cx&#45;&gt;qh</title>
<path fill="none" stroke="black" d="M235,-434.15C243.75,-424.87 255.2,-412.73 265.13,-402.19"/>
<polygon fill="black" stroke="black" points="267.67,-404.6 271.98,-394.93 262.58,-399.8 267.67,-404.6"/>
</g>
<!-- vk&#45;&gt;lz -->
<g id="edge41" class="edge">
<title>vk&#45;&gt;lz</title>
<path fill="none" stroke="black" d="M720,-215.7C720,-208.41 720,-199.73 720,-191.54"/>
<polygon fill="black" stroke="black" points="723.5,-191.62 720,-181.62 716.5,-191.62 723.5,-191.62"/>
</g>
<!-- nt -->
<g id="node56" class="node">
<title>nt</title>
<ellipse fill="none" stroke="black" cx="701" cy="-594" rx="27" ry="18"/>
<text text-anchor="middle" x="701" y="-588.95" font-family="Times,serif" font-size="14.00">%nt</text>
</g>
<!-- qm&#45;&gt;nt -->
<g id="edge77" class="edge">
<title>qm&#45;&gt;nt</title>
<path fill="none" stroke="black" d="M604.37,-652.32C623.2,-641.15 650.82,-624.77 671.71,-612.37"/>
<polygon fill="black" stroke="black" points="673.24,-615.54 680.06,-607.42 669.67,-609.52 673.24,-615.54"/>
</g>
<!-- jg -->
<g id="node30" class="node">
<title>jg</title>
<ellipse fill="none" stroke="black" cx="968" cy="-810" rx="27" ry="18"/>
<text text-anchor="middle" x="968" y="-804.95" font-family="Times,serif" font-size="14.00">&amp;jg</text>
</g>
<!-- jg&#45;&gt;qb -->
<g id="edge27" class="edge">
<title>jg&#45;&gt;qb</title>
<path fill="none" stroke="black" d="M973.57,-792.21C985.75,-755.5 1014.85,-667.79 1029.8,-622.74"/>
<polygon fill="black" stroke="black" points="1033.05,-624.04 1032.88,-613.45 1026.41,-621.84 1033.05,-624.04"/>
</g>
<!-- cf -->
<g id="node31" class="node">
<title>cf</title>
<ellipse fill="none" stroke="black" cx="1774" cy="-378" rx="27" ry="18"/>
<text text-anchor="middle" x="1774" y="-372.95" font-family="Times,serif" font-size="14.00">%cf</text>
</g>
<!-- cf&#45;&gt;sv -->
<g id="edge28" class="edge">
<title>cf&#45;&gt;sv</title>
<path fill="none" stroke="black" d="M1751.22,-387.99C1709.26,-406.23 1624,-451.79 1624,-521 1624,-667 1624,-667 1624,-667 1624,-716.73 1664.4,-762.59 1691.95,-788.08"/>
<polygon fill="black" stroke="black" points="1689.46,-790.55 1699.25,-794.61 1694.13,-785.34 1689.46,-790.55"/>
</g>
<!-- tz -->
<g id="node32" class="node">
<title>tz</title>
<ellipse fill="none" stroke="black" cx="1833" cy="-306" rx="27" ry="18"/>
<text text-anchor="middle" x="1833" y="-300.95" font-family="Times,serif" font-size="14.00">%tz</text>
</g>
<!-- cf&#45;&gt;tz -->
<g id="edge29" class="edge">
<title>cf&#45;&gt;tz</title>
<path fill="none" stroke="black" d="M1786.8,-361.81C1794.46,-352.73 1804.35,-341 1813.01,-330.72"/>
<polygon fill="black" stroke="black" points="1815.48,-333.22 1819.25,-323.32 1810.13,-328.71 1815.48,-333.22"/>
</g>
<!-- tz&#45;&gt;sv -->
<g id="edge69" class="edge">
<title>tz&#45;&gt;sv</title>
<path fill="none" stroke="black" d="M1836.36,-323.97C1841.31,-350.52 1850,-403.56 1850,-449 1850,-667 1850,-667 1850,-667 1850,-726.22 1787.61,-770.93 1748.3,-793.23"/>
<polygon fill="black" stroke="black" points="1746.79,-790.06 1739.7,-797.94 1750.15,-796.2 1746.79,-790.06"/>
</g>
<!-- ng -->
<g id="node55" class="node">
<title>ng</title>
<ellipse fill="none" stroke="black" cx="1870" cy="-234" rx="28.32" ry="18"/>
<text text-anchor="middle" x="1870" y="-228.95" font-family="Times,serif" font-size="14.00">%ng</text>
</g>
<!-- tz&#45;&gt;ng -->
<g id="edge70" class="edge">
<title>tz&#45;&gt;ng</title>
<path fill="none" stroke="black" d="M1841.58,-288.76C1845.92,-280.55 1851.3,-270.37 1856.21,-261.09"/>
<polygon fill="black" stroke="black" points="1859.18,-262.96 1860.76,-252.49 1852.99,-259.69 1859.18,-262.96"/>
</g>
<!-- jz&#45;&gt;ct -->
<g id="edge46" class="edge">
<title>jz&#45;&gt;ct</title>
<path fill="none" stroke="black" d="M1484.19,-648.76C1479.73,-640.55 1474.2,-630.37 1469.16,-621.09"/>
<polygon fill="black" stroke="black" points="1472.33,-619.6 1464.49,-612.48 1466.18,-622.94 1472.33,-619.6"/>
</g>
<!-- tj -->
<g id="node46" class="node">
<title>tj</title>
<ellipse fill="none" stroke="black" cx="1303" cy="-306" rx="27" ry="18"/>
<text text-anchor="middle" x="1303" y="-300.95" font-family="Times,serif" font-size="14.00">%tj</text>
</g>
<!-- tq&#45;&gt;tj -->
<g id="edge47" class="edge">
<title>tq&#45;&gt;tj</title>
<path fill="none" stroke="black" d="M1332.19,-360.76C1327.73,-352.55 1322.2,-342.37 1317.16,-333.09"/>
<polygon fill="black" stroke="black" points="1320.33,-331.6 1312.49,-324.48 1314.18,-334.94 1320.33,-331.6"/>
</g>
<!-- mr&#45;&gt;qb -->
<g id="edge74" class="edge">
<title>mr&#45;&gt;qb</title>
<path fill="none" stroke="black" d="M1099.25,-650.5C1088.69,-640.76 1074.58,-627.77 1062.67,-616.8"/>
<polygon fill="black" stroke="black" points="1065.31,-614.47 1055.58,-610.27 1060.56,-619.62 1065.31,-614.47"/>
</g>
<!-- bn -->
<g id="node37" class="node">
<title>bn</title>
<ellipse fill="none" stroke="black" cx="1774" cy="-450" rx="28.32" ry="18"/>
<text text-anchor="middle" x="1774" y="-444.95" font-family="Times,serif" font-size="14.00">%bn</text>
</g>
<!-- mx&#45;&gt;bn -->
<g id="edge36" class="edge">
<title>mx&#45;&gt;bn</title>
<path fill="none" stroke="black" d="M1758.08,-504.05C1760.38,-496.4 1763.15,-487.16 1765.73,-478.56"/>
<polygon fill="black" stroke="black" points="1769.01,-479.82 1768.53,-469.24 1762.3,-477.81 1769.01,-479.82"/>
</g>
<!-- bn&#45;&gt;sv -->
<g id="edge48" class="edge">
<title>bn&#45;&gt;sv</title>
<path fill="none" stroke="black" d="M1781.51,-467.66C1792.58,-493.8 1812,-546.3 1812,-593 1812,-667 1812,-667 1812,-667 1812,-717.05 1770.73,-762.81 1742.59,-788.2"/>
<polygon fill="black" stroke="black" points="1740.36,-785.5 1735.12,-794.71 1744.96,-790.77 1740.36,-785.5"/>
</g>
<!-- bn&#45;&gt;cf -->
<g id="edge49" class="edge">
<title>bn&#45;&gt;cf</title>
<path fill="none" stroke="black" d="M1774,-431.7C1774,-424.41 1774,-415.73 1774,-407.54"/>
<polygon fill="black" stroke="black" points="1777.5,-407.62 1774,-397.62 1770.5,-407.62 1777.5,-407.62"/>
</g>
<!-- bv -->
<g id="node38" class="node">
<title>bv</title>
<ellipse fill="none" stroke="black" cx="208" cy="-738" rx="28.32" ry="18"/>
<text text-anchor="middle" x="208" y="-732.95" font-family="Times,serif" font-size="14.00">%bv</text>
</g>
<!-- bv&#45;&gt;sk -->
<g id="edge37" class="edge">
<title>bv&#45;&gt;sk</title>
<path fill="none" stroke="black" d="M205.66,-756.41C203.8,-774.61 202.47,-803.83 209,-828 219.24,-865.91 243.71,-904.43 261.05,-928.5"/>
<polygon fill="black" stroke="black" points="258.1,-930.4 266.86,-936.36 263.74,-926.24 258.1,-930.4"/>
</g>
<!-- kf -->
<g id="node40" class="node">
<title>kf</title>
<ellipse fill="none" stroke="black" cx="188" cy="-666" rx="27" ry="18"/>
<text text-anchor="middle" x="188" y="-660.95" font-family="Times,serif" font-size="14.00">%kf</text>
</g>
<!-- bv&#45;&gt;kf -->
<g id="edge38" class="edge">
<title>bv&#45;&gt;kf</title>
<path fill="none" stroke="black" d="M203.16,-720.05C201,-712.49 198.39,-703.37 195.96,-694.85"/>
<polygon fill="black" stroke="black" points="199.33,-693.9 193.21,-685.24 192.59,-695.82 199.33,-693.9"/>
</g>
<!-- sk&#45;&gt;gf -->
<g id="edge59" class="edge">
<title>sk&#45;&gt;gf</title>
<path fill="none" stroke="black" d="M299.77,-941.44C324.6,-928.99 367.17,-909.22 397.17,-896.17"/>
<polygon fill="black" stroke="black" points="398.4,-899.45 406.21,-892.29 395.64,-893.02 398.4,-899.45"/>
</g>
<!-- sk&#45;&gt;qv -->
<g id="edge60" class="edge">
<title>sk&#45;&gt;qv</title>
<path fill="none" stroke="black" d="M283.95,-936.06C289.78,-909.55 300,-856.56 300,-811 300,-811 300,-811 300,-665 300,-618.11 266.7,-572.25 243.34,-545.85"/>
<polygon fill="black" stroke="black" points="246.21,-543.8 236.88,-538.78 241.04,-548.53 246.21,-543.8"/>
</g>
<!-- sk&#45;&gt;jg -->
<g id="edge61" class="edge">
<title>sk&#45;&gt;jg</title>
<path fill="none" stroke="black" d="M307.32,-953.62C384.94,-954.65 612.8,-952.63 792,-900 847.23,-883.78 905.82,-850.48 939.54,-829.53"/>
<polygon fill="black" stroke="black" points="941.3,-832.56 947.89,-824.27 937.57,-826.64 941.3,-832.56"/>
</g>
<!-- sk&#45;&gt;kf -->
<g id="edge62" class="edge">
<title>sk&#45;&gt;kf</title>
<path fill="none" stroke="black" d="M261.06,-940.69C247.62,-931.06 230.06,-916.57 219,-900 181.55,-843.89 181.81,-822.59 171,-756 168.44,-740.21 168.53,-735.81 171,-720 172.32,-711.56 174.75,-702.64 177.38,-694.56"/>
<polygon fill="black" stroke="black" points="180.62,-695.88 180.61,-685.29 174.01,-693.58 180.62,-695.88"/>
</g>
<!-- rd -->
<g id="node52" class="node">
<title>rd</title>
<ellipse fill="none" stroke="black" cx="188" cy="-594" rx="27" ry="18"/>
<text text-anchor="middle" x="188" y="-588.95" font-family="Times,serif" font-size="14.00">%rd</text>
</g>
<!-- sk&#45;&gt;rd -->
<g id="edge63" class="edge">
<title>sk&#45;&gt;rd</title>
<path fill="none" stroke="black" d="M256.22,-945.25C210.32,-928.63 114,-884.95 114,-811 114,-811 114,-811 114,-737 114,-691 144.92,-645.13 166.79,-618.45"/>
<polygon fill="black" stroke="black" points="169.31,-620.89 173.1,-611 163.97,-616.36 169.31,-620.89"/>
</g>
<!-- sk&#45;&gt;qh -->
<g id="edge64" class="edge">
<title>sk&#45;&gt;qh</title>
<path fill="none" stroke="black" d="M291.18,-937.25C308.04,-911.92 338,-860 338,-811 338,-811 338,-811 338,-521 338,-478.45 317.47,-432.73 302.46,-404.99"/>
<polygon fill="black" stroke="black" points="305.51,-403.28 297.57,-396.26 299.4,-406.7 305.51,-403.28"/>
</g>
<!-- kf&#45;&gt;rd -->
<g id="edge97" class="edge">
<title>kf&#45;&gt;rd</title>
<path fill="none" stroke="black" d="M188,-647.7C188,-640.41 188,-631.73 188,-623.54"/>
<polygon fill="black" stroke="black" points="191.5,-623.62 188,-613.62 184.5,-623.62 191.5,-623.62"/>
</g>
<!-- mq&#45;&gt;dr -->
<g id="edge65" class="edge">
<title>mq&#45;&gt;dr</title>
<path fill="none" stroke="black" d="M1377.25,-793.81C1368.12,-784.42 1356.24,-772.19 1346.02,-761.67"/>
<polygon fill="black" stroke="black" points="1348.79,-759.5 1339.31,-754.77 1343.77,-764.38 1348.79,-759.5"/>
</g>
<!-- mq&#45;&gt;jz -->
<g id="edge66" class="edge">
<title>mq&#45;&gt;jz</title>
<path fill="none" stroke="black" d="M1403.39,-792.99C1420.91,-768.35 1454.61,-720.97 1475.32,-691.85"/>
<polygon fill="black" stroke="black" points="1477.98,-694.15 1480.93,-683.97 1472.28,-690.09 1477.98,-694.15"/>
</g>
<!-- jd&#45;&gt;qz -->
<g id="edge42" class="edge">
<title>jd&#45;&gt;qz</title>
<path fill="none" stroke="black" d="M557.7,-35.58C545.46,-61.61 524,-113.95 524,-161 524,-595 524,-595 524,-595 524,-635.45 514.88,-654.92 543,-684 566.94,-708.76 663.25,-724.97 717.8,-732.37"/>
<polygon fill="black" stroke="black" points="717.22,-735.82 727.59,-733.66 718.13,-728.88 717.22,-735.82"/>
</g>
<!-- tp -->
<g id="node44" class="node">
<title>tp</title>
<ellipse fill="none" stroke="black" cx="1889" cy="-90" rx="27" ry="18"/>
<text text-anchor="middle" x="1889" y="-84.95" font-family="Times,serif" font-size="14.00">%tp</text>
</g>
<!-- tp&#45;&gt;sv -->
<g id="edge44" class="edge">
<title>tp&#45;&gt;sv</title>
<path fill="none" stroke="black" d="M1861.58,-91.34C1786.99,-93.86 1586,-111.87 1586,-233 1586,-667 1586,-667 1586,-667 1586,-725.65 1647.13,-770.44 1685.87,-792.93"/>
<polygon fill="black" stroke="black" points="1683.91,-795.84 1694.34,-797.68 1687.33,-789.73 1683.91,-795.84"/>
</g>
<!-- lm -->
<g id="node45" class="node">
<title>lm</title>
<ellipse fill="none" stroke="black" cx="1926" cy="-18" rx="29.34" ry="18"/>
<text text-anchor="middle" x="1926" y="-12.95" font-family="Times,serif" font-size="14.00">%lm</text>
</g>
<!-- tp&#45;&gt;lm -->
<g id="edge45" class="edge">
<title>tp&#45;&gt;lm</title>
<path fill="none" stroke="black" d="M1897.58,-72.76C1901.82,-64.75 1907.04,-54.88 1911.84,-45.79"/>
<polygon fill="black" stroke="black" points="1914.92,-47.45 1916.5,-36.97 1908.73,-44.18 1914.92,-47.45"/>
</g>
<!-- lm&#45;&gt;sv -->
<g id="edge104" class="edge">
<title>lm&#45;&gt;sv</title>
<path fill="none" stroke="black" d="M1933.51,-35.66C1944.58,-61.8 1964,-114.3 1964,-161 1964,-667 1964,-667 1964,-667 1964,-762.15 1824.52,-794.48 1755.19,-804.68"/>
<polygon fill="black" stroke="black" points="1754.83,-801.19 1745.4,-806.03 1755.79,-808.13 1754.83,-801.19"/>
</g>
<!-- tj&#45;&gt;dx -->
<g id="edge98" class="edge">
<title>tj&#45;&gt;dx</title>
<path fill="none" stroke="black" d="M1298.4,-288.05C1296.35,-280.49 1293.87,-271.37 1291.56,-262.85"/>
<polygon fill="black" stroke="black" points="1294.95,-261.98 1288.95,-253.25 1288.2,-263.82 1294.95,-261.98"/>
</g>
<!-- tj&#45;&gt;dr -->
<g id="edge99" class="edge">
<title>tj&#45;&gt;dr</title>
<path fill="none" stroke="black" d="M1299.64,-323.97C1294.69,-350.52 1286,-403.56 1286,-449 1286,-595 1286,-595 1286,-595 1286,-636.05 1301,-681.57 1312.15,-709.74"/>
<polygon fill="black" stroke="black" points="1308.89,-711.01 1315.92,-718.94 1315.37,-708.36 1308.89,-711.01"/>
</g>
<!-- br -->
<g id="node47" class="node">
<title>br</title>
<ellipse fill="none" stroke="black" cx="240" cy="-234" rx="27" ry="18"/>
<text text-anchor="middle" x="240" y="-228.95" font-family="Times,serif" font-size="14.00">%br</text>
</g>
<!-- br&#45;&gt;sk -->
<g id="edge50" class="edge">
<title>br&#45;&gt;sk</title>
<path fill="none" stroke="black" d="M214.42,-240.3C160.06,-253.21 38,-291.69 38,-377 38,-811 38,-811 38,-811 38,-856.59 53,-872.03 89,-900 133.74,-934.76 199.93,-946.73 241.48,-950.85"/>
<polygon fill="black" stroke="black" points="240.98,-954.32 251.25,-951.7 241.59,-947.35 240.98,-954.32"/>
</g>
<!-- hc -->
<g id="node48" class="node">
<title>hc</title>
<ellipse fill="none" stroke="black" cx="240" cy="-162" rx="27.81" ry="18"/>
<text text-anchor="middle" x="240" y="-156.95" font-family="Times,serif" font-size="14.00">%hc</text>
</g>
<!-- br&#45;&gt;hc -->
<g id="edge51" class="edge">
<title>br&#45;&gt;hc</title>
<path fill="none" stroke="black" d="M240,-215.7C240,-208.41 240,-199.73 240,-191.54"/>
<polygon fill="black" stroke="black" points="243.5,-191.62 240,-181.62 236.5,-191.62 243.5,-191.62"/>
</g>
<!-- hc&#45;&gt;sk -->
<g id="edge83" class="edge">
<title>hc&#45;&gt;sk</title>
<path fill="none" stroke="black" d="M267.27,-165.87C331.32,-174.26 486,-204.89 486,-305 486,-811 486,-811 486,-811 486,-851.45 494.64,-870.47 467,-900 428.63,-940.98 361.16,-951.08 318.62,-953.13"/>
<polygon fill="black" stroke="black" points="318.71,-949.62 308.83,-953.46 318.95,-956.62 318.71,-949.62"/>
</g>
<!-- nf -->
<g id="node57" class="node">
<title>nf</title>
<ellipse fill="none" stroke="black" cx="94" cy="-90" rx="27" ry="18"/>
<text text-anchor="middle" x="94" y="-84.95" font-family="Times,serif" font-size="14.00">%nf</text>
</g>
<!-- hc&#45;&gt;nf -->
<g id="edge84" class="edge">
<title>hc&#45;&gt;nf</title>
<path fill="none" stroke="black" d="M218.14,-150.52C193.6,-138.75 153.54,-119.55 125.59,-106.15"/>
<polygon fill="black" stroke="black" points="127.43,-103.14 116.9,-101.98 124.4,-109.46 127.43,-103.14"/>
</g>
<!-- nd&#45;&gt;dr -->
<g id="edge54" class="edge">
<title>nd&#45;&gt;dr</title>
<path fill="none" stroke="black" d="M1224.44,-107.96C1219.2,-134.5 1210,-187.52 1210,-233 1210,-595 1210,-595 1210,-595 1210,-649.38 1261.47,-694.8 1295.24,-718.74"/>
<polygon fill="black" stroke="black" points="1293.18,-721.57 1303.41,-724.33 1297.14,-715.8 1293.18,-721.57"/>
</g>
<!-- nk -->
<g id="node50" class="node">
<title>nk</title>
<ellipse fill="none" stroke="black" cx="1200" cy="-18" rx="28.32" ry="18"/>
<text text-anchor="middle" x="1200" y="-12.95" font-family="Times,serif" font-size="14.00">%nk</text>
</g>
<!-- nd&#45;&gt;nk -->
<g id="edge55" class="edge">
<title>nd&#45;&gt;nk</title>
<path fill="none" stroke="black" d="M1221.22,-72.05C1218.13,-64.32 1214.38,-54.96 1210.91,-46.27"/>
<polygon fill="black" stroke="black" points="1214.24,-45.18 1207.28,-37.19 1207.74,-47.78 1214.24,-45.18"/>
</g>
<!-- nk&#45;&gt;dr -->
<g id="edge105" class="edge">
<title>nk&#45;&gt;dr</title>
<path fill="none" stroke="black" d="M1194.47,-35.84C1186.31,-62.21 1172,-115.02 1172,-161 1172,-595 1172,-595 1172,-595 1172,-640.37 1189.4,-652.45 1222,-684 1241.17,-702.56 1268.14,-716.19 1289.53,-724.97"/>
<polygon fill="black" stroke="black" points="1288.14,-728.19 1298.73,-728.58 1290.69,-721.67 1288.14,-728.19"/>
</g>
<!-- rz&#45;&gt;qb -->
<g id="edge56" class="edge">
<title>rz&#45;&gt;qb</title>
<path fill="none" stroke="black" d="M1140.19,-727.69C1121.1,-718.9 1094.28,-704.07 1077,-684 1061.84,-666.39 1051.97,-641.84 1046.1,-622.98"/>
<polygon fill="black" stroke="black" points="1049.51,-622.17 1043.37,-613.54 1042.78,-624.12 1049.51,-622.17"/>
</g>
<!-- rd&#45;&gt;qv -->
<g id="edge109" class="edge">
<title>rd&#45;&gt;qv</title>
<path fill="none" stroke="black" d="M195.82,-576.41C199.56,-568.48 204.13,-558.78 208.35,-549.84"/>
<polygon fill="black" stroke="black" points="211.49,-551.38 212.59,-540.84 205.16,-548.39 211.49,-551.38"/>
</g>
<!-- xp -->
<g id="node58" class="node">
<title>xp</title>
<ellipse fill="none" stroke="black" cx="287" cy="-306" rx="28.32" ry="18"/>
<text text-anchor="middle" x="287" y="-300.95" font-family="Times,serif" font-size="14.00">%xp</text>
</g>
<!-- qh&#45;&gt;xp -->
<g id="edge108" class="edge">
<title>qh&#45;&gt;xp</title>
<path fill="none" stroke="black" d="M287,-359.7C287,-352.41 287,-343.73 287,-335.54"/>
<polygon fill="black" stroke="black" points="290.5,-335.62 287,-325.62 283.5,-335.62 290.5,-335.62"/>
</g>
<!-- rl&#45;&gt;bv -->
<g id="edge67" class="edge">
<title>rl&#45;&gt;bv</title>
<path fill="none" stroke="black" d="M236.42,-792.76C232.08,-784.55 226.7,-774.37 221.79,-765.09"/>
<polygon fill="black" stroke="black" points="225.01,-763.69 217.24,-756.49 218.82,-766.96 225.01,-763.69"/>
</g>
<!-- rl&#45;&gt;sk -->
<g id="edge68" class="edge">
<title>rl&#45;&gt;sk</title>
<path fill="none" stroke="black" d="M249.24,-828.19C255.16,-852.21 265.98,-896.11 273.08,-924.91"/>
<polygon fill="black" stroke="black" points="269.62,-925.53 275.42,-934.4 276.42,-923.85 269.62,-925.53"/>
</g>
<!-- ng&#45;&gt;sv -->
<g id="edge102" class="edge">
<title>ng&#45;&gt;sv</title>
<path fill="none" stroke="black" d="M1873.56,-251.96C1878.8,-278.5 1888,-331.52 1888,-377 1888,-667 1888,-667 1888,-667 1888,-737.14 1801.8,-779.26 1751.81,-797.79"/>
<polygon fill="black" stroke="black" points="1750.81,-794.43 1742.56,-801.09 1753.16,-801.03 1750.81,-794.43"/>
</g>
<!-- bc -->
<g id="node59" class="node">
<title>bc</title>
<ellipse fill="none" stroke="black" cx="1889" cy="-162" rx="27.81" ry="18"/>
<text text-anchor="middle" x="1889" y="-156.95" font-family="Times,serif" font-size="14.00">%bc</text>
</g>
<!-- ng&#45;&gt;bc -->
<g id="edge103" class="edge">
<title>ng&#45;&gt;bc</title>
<path fill="none" stroke="black" d="M1874.6,-216.05C1876.65,-208.49 1879.13,-199.37 1881.44,-190.85"/>
<polygon fill="black" stroke="black" points="1884.8,-191.82 1884.05,-181.25 1878.05,-189.98 1884.8,-191.82"/>
</g>
<!-- nt&#45;&gt;px -->
<g id="edge106" class="edge">
<title>nt&#45;&gt;px</title>
<path fill="none" stroke="black" d="M709.58,-576.76C713.92,-568.55 719.3,-558.37 724.21,-549.09"/>
<polygon fill="black" stroke="black" points="727.18,-550.96 728.76,-540.49 720.99,-547.69 727.18,-550.96"/>
</g>
<!-- nt&#45;&gt;qz -->
<g id="edge107" class="edge">
<title>nt&#45;&gt;qz</title>
<path fill="none" stroke="black" d="M707.52,-611.82C716.86,-635.94 734.16,-680.6 745.37,-709.54"/>
<polygon fill="black" stroke="black" points="742.05,-710.68 748.93,-718.74 748.58,-708.15 742.05,-710.68"/>
</g>
<!-- nf&#45;&gt;sk -->
<g id="edge91" class="edge">
<title>nf&#45;&gt;sk</title>
<path fill="none" stroke="black" d="M77.19,-104.34C50.16,-127.43 0,-177.71 0,-233 0,-811 0,-811 0,-811 0,-856.15 12.96,-872.8 49,-900 106.04,-943.05 192.01,-952.08 241.4,-953.44"/>
<polygon fill="black" stroke="black" points="241.26,-956.94 251.32,-953.61 241.38,-949.94 241.26,-956.94"/>
</g>
<!-- xp&#45;&gt;sk -->
<g id="edge85" class="edge">
<title>xp&#45;&gt;sk</title>
<path fill="none" stroke="black" d="M303.32,-320.91C329.02,-344.44 376,-394.88 376,-449 376,-811 376,-811 376,-811 376,-861.21 334.29,-906.92 305.86,-932.25"/>
<polygon fill="black" stroke="black" points="303.6,-929.58 298.31,-938.75 308.17,-934.88 303.6,-929.58"/>
</g>
<!-- xp&#45;&gt;br -->
<g id="edge86" class="edge">
<title>xp&#45;&gt;br</title>
<path fill="none" stroke="black" d="M276.33,-289.12C270.63,-280.61 263.46,-269.94 257,-260.32"/>
<polygon fill="black" stroke="black" points="259.95,-258.43 251.47,-252.08 254.14,-262.33 259.95,-258.43"/>
</g>
<!-- bc&#45;&gt;sv -->
<g id="edge87" class="edge">
<title>bc&#45;&gt;sv</title>
<path fill="none" stroke="black" d="M1896.31,-179.68C1907.09,-205.85 1926,-258.38 1926,-305 1926,-667 1926,-667 1926,-667 1926,-749.22 1813.98,-787.16 1753.96,-801.59"/>
<polygon fill="black" stroke="black" points="1753.49,-798.11 1744.52,-803.75 1755.05,-804.93 1753.49,-798.11"/>
</g>
<!-- bc&#45;&gt;tp -->
<g id="edge88" class="edge">
<title>bc&#45;&gt;tp</title>
<path fill="none" stroke="black" d="M1889,-143.7C1889,-136.41 1889,-127.73 1889,-119.54"/>
<polygon fill="black" stroke="black" points="1892.5,-119.62 1889,-109.62 1885.5,-119.62 1892.5,-119.62"/>
</g>
</g>
</svg>
